<svg xmlns="http://www.w3.org/2000/svg" version="1.1" xmlns:xlink="http://www.w3.org/1999/xlink" xmlns:svgjs="http://svgjs.com/svgjs" width="1440" height="560" preserveAspectRatio="none" viewBox="0 0 1440 560"><g mask="url(&quot;#SvgjsMask1046&quot;)" fill="none"><rect width="1440" height="560" x="0" y="0" fill="url(#SvgjsLinearGradient1047)"></rect><path d="M 0,108 C 57.6,138.6 172.8,261.2 288,261 C 403.2,260.8 460.8,119.4 576,107 C 691.2,94.6 748.8,220 864,199 C 979.2,178 1036.8,7.8 1152,2 C 1267.2,-3.8 1382.4,136.4 1440,170L1440 560L0 560z" fill="#184a7e"></path><path d="M 0,387 C 41.2,415.4 123.6,535 206,529 C 288.4,523 329.6,376.8 412,357 C 494.4,337.2 535.6,418.4 618,430 C 700.4,441.6 741.6,413.4 824,415 C 906.4,416.6 947.6,439 1030,438 C 1112.4,437 1154,399 1236,410 C 1318,421 1399.2,476.4 1440,493L1440 560L0 560z" fill="rgba(38, 159, 109, 1)"></path></g><defs><mask id="SvgjsMask1046"><rect width="1440" height="560" fill="#ffffff"></rect></mask><linearGradient x1="0%" y1="50%" x2="100%" y2="50%" gradientUnits="userSpaceOnUse" id="SvgjsLinearGradient1047"><stop stop-color="#0e2a47" offset="0"></stop><stop stop-color="rgba(46, 64, 87, 1)" offset="1"></stop></linearGradient></defs></svg>